<?xml version="1.0" encoding="UTF-8"?>
<svg id="Layer_1" xmlns="http://www.w3.org/2000/svg" viewBox="0 0 713 713">
  <defs>
    <style>
      .cls-1 {
        fill: #fff;
      }
    </style>
  </defs>
  <path class="cls-1" d="M708.65,254.33c-3.17-3.17-7.55-5.13-12.38-5.13h-197.5v197.5c0,4.83,1.96,9.21,5.13,12.38,3.16,3.16,7.54,5.12,12.37,5.12h197.5v-197.5c0-4.83-1.96-9.21-5.12-12.37ZM533.77,284.2h145v145h-145v-145Z"/>
  <path class="cls-1" d="M458.43,504.06c-3.17-3.17-7.55-5.13-12.38-5.13h-197.5v197.5c0,4.83,1.96,9.21,5.13,12.38,3.16,3.16,7.54,5.12,12.37,5.12h197.5v-197.5c0-4.83-1.96-9.21-5.12-12.37ZM283.55,533.93h145v145h-145v-145Z"/>
  <path class="cls-1" d="M463.55,266.22v17.98h-180v180h-18c-9.39,0-17-7.6-17-16.99v-180.51c0-9.66,7.84-17.5,17.5-17.5h180.48c9.4,0,17.02,7.62,17.02,17.02Z"/>
  <g>
    <path class="cls-1" d="M214.25,266.7v180c0,9.67-7.83,17.5-17.5,17.5H17.2c-9.92,0-17.95-8.03-17.95-17.94v-17.06h180v-145H-.75v-16.86c0-10.02,8.12-18.14,18.14-18.14h179.36c4.83,0,9.21,1.96,12.38,5.13,3.16,3.16,5.12,7.54,5.12,12.37Z"/>
    <circle class="cls-1" cx="106.75" cy="356.7" r="36"/>
  </g>
  <g>
    <path class="cls-1" d="M463.55,16.88v180c0,9.67-7.83,17.5-17.5,17.5h-179.55c-9.92,0-17.95-8.03-17.95-17.94v-17.06h180V34.38h-180v-16.86c0-10.02,8.12-18.14,18.14-18.14h179.36c4.83,0,9.21,1.96,12.38,5.13,3.16,3.16,5.12,7.54,5.12,12.37Z"/>
    <circle class="cls-1" cx="356.05" cy="106.88" r="36"/>
  </g>
</svg>