<?xml version="1.0" encoding="UTF-8"?>
<svg id="Layer_1" xmlns="http://www.w3.org/2000/svg" viewBox="0 0 713 713">
  <path d="M708.6497,254.3306c-3.1699-3.17-7.5498-5.13-12.3799-5.13h-197.5v197.5001c0,4.83,1.96,9.21,5.1299,12.38,3.1602,3.16,7.54,5.1199,12.3701,5.1199h197.5v-197.5c0-4.83-1.96-9.21-5.1201-12.37ZM533.7698,284.2006h145v145h-145v-145Z"/>
  <path d="M458.4283,504.0551c-3.1699-3.17-7.5498-5.13-12.3799-5.13h-197.5v197.5001c0,4.83,1.96,9.21,5.1299,12.38,3.1602,3.16,7.54,5.1199,12.3701,5.1199h197.5v-197.5c0-4.83-1.96-9.21-5.1201-12.37ZM283.5484,533.9251h145v145h-145v-145Z"/>
  <path d="M463.5484,266.2207v17.98h-180v180h-18c-9.3899,0-17-7.5999-17-16.9899v-180.5101c0-9.66,7.8401-17.5,17.5-17.5h180.48c9.3999,0,17.02,7.62,17.02,17.02Z"/>
  <g>
    <path d="M214.2501,266.7006v180.0001c0,9.67-7.8301,17.4999-17.5,17.4999H17.2001c-9.9199,0-17.95-8.0299-17.95-17.9399v-17.06h180v-145H-.7499v-16.86c0-10.02,8.12-18.14,18.14-18.14h179.36c4.8301,0,9.21,1.96,12.3799,5.13,3.1602,3.16,5.1201,7.54,5.1201,12.37Z"/>
    <circle cx="106.7501" cy="356.7006" r="36"/>
  </g>
  <g>
    <path d="M463.5484,16.8761v180.0001c0,9.67-7.8301,17.4999-17.5,17.4999h-179.55c-9.9199,0-17.95-8.0299-17.95-17.9399v-17.06h180V34.3761h-180v-16.86c0-10.02,8.12-18.14,18.14-18.14h179.36c4.8301,0,9.21,1.96,12.3799,5.13,3.1602,3.16,5.1201,7.54,5.1201,12.37Z"/>
    <circle cx="356.0484" cy="106.8761" r="36"/>
  </g>
</svg>