<svg width="94" height="94" viewBox="0 0 94 94" fill="none" xmlns="http://www.w3.org/2000/svg">
<rect width="94" height="94" fill="#D97E2E"/>
<path fill-rule="evenodd" clip-rule="evenodd" d="M73 50.9876L72.9971 50.9847L53.6121 70.2245C52.6358 71.1935 51.0528 71.1935 50.0765 70.2245C49.1002 69.2555 49.1002 67.6844 50.0765 66.7154L67.1498 49.77L18.4813 49.77C17.1109 49.77 16 48.6591 16 47.2888C16 45.9184 17.1109 44.8075 18.4813 44.8075L66.7733 44.8075L50.0765 28.2358C49.1002 27.2668 49.1002 25.6957 50.0765 24.7267C51.0528 23.7578 52.6357 23.7578 53.6121 24.7267L72.9971 43.9666L73 43.9637L76.5355 47.4727L76.5326 47.4756L76.5355 47.4785L73 50.9876Z" fill="#FFF8F4"/>
</svg>
