<svg width="88" height="88" viewBox="0 0 88 88" fill="none" xmlns="http://www.w3.org/2000/svg">
<ellipse cx="44" cy="43.6704" rx="44" ry="43.6704" fill="#D97E2E"/>
<path fill-rule="evenodd" clip-rule="evenodd" d="M71 46.9876L70.9971 46.9847L51.6121 66.2245C50.6358 67.1935 49.0528 67.1935 48.0765 66.2245C47.1002 65.2555 47.1002 63.6844 48.0765 62.7154L65.1498 45.77L16.4813 45.77C15.1109 45.77 14 44.6591 14 43.2887C14 41.9184 15.1109 40.8075 16.4813 40.8075L64.7733 40.8075L48.0765 24.2358C47.1002 23.2668 47.1002 21.6957 48.0765 20.7267C49.0528 19.7578 50.6357 19.7578 51.6121 20.7267L70.9971 39.9666L71 39.9637L74.5355 43.4727L74.5326 43.4756L74.5355 43.4785L71 46.9876Z" fill="#FFF8F4"/>
</svg>
